<svg xmlns="http://www.w3.org/2000/svg" viewBox="0 0 1024 1024">
  <!-- kk family tile: brand navy gradient, single signal-orange mark (same as whispr-open) -->
  <defs>
    <linearGradient id="bg" x1="0" y1="0" x2="0" y2="1">
      <stop offset="0" stop-color="#1E3A5F"/>
      <stop offset="1" stop-color="#12243E"/>
    </linearGradient>
  </defs>
  <rect x="64" y="64" width="896" height="896" rx="200" fill="url(#bg)"/>
  <path transform="translate(150 262) scale(26)" fill="#F57C00" d="M4.6 2.5H7c.6 0 1.1.4 1.3 1l1.1 3.2c.2.5 0 1.1-.4 1.4L7.4 9.6c1.3 2.7 3.5 4.9 6.2 6.2l1.5-1.6c.4-.4.9-.5 1.4-.4l3.2 1.1c.6.2 1 .7 1 1.3v2.2c0 .9-.7 1.6-1.6 1.6C10.3 21 3 13.7 3 4.1c0-.9.7-1.6 1.6-1.6z"/>
  <g fill="none" stroke="#F57C00" stroke-width="56" stroke-linecap="round">
    <path d="M586 312 A150 150 0 0 1 708 434"/>
    <path d="M603 214 A250 250 0 0 1 806 417"/>
  </g>
</svg>
